<svg xmlns="http://www.w3.org/2000/svg" version="1.1" xmlns:xlink="http://www.w3.org/1999/xlink" width="512" height="512" x="0" y="0" viewBox="0 0 512 512" style="enable-background:new 0 0 512 512" xml:space="preserve" fill-rule="evenodd" class=""><circle r="256" cx="256" cy="256" fill="#1640d6" shape="circle"></circle><g transform="matrix(0.7,0,0,0.7,76.80006008148194,76.79996795654299)"><g fill-rule="nonzero"><path fill="#ffffff" d="M161.614 96.794c-18.168 6.453-36.337 12.905-54.505 19.359-4.802 1.705-2.733 9.41 2.12 7.687l54.504-19.358c4.801-1.706 2.733-9.411-2.119-7.688z" opacity="1" data-original="#09090a" class=""></path><path d="M194.27 66.603c-5.12-1.889-10.015-4.329-14.637-7.23-.912-.572-2.197-.194-2.727.714-.56.957-.2 2.154.714 2.727 4.916 3.086 10.148 5.626 15.591 7.633 1.01.373 2.183-.417 2.452-1.391.305-1.113-.378-2.078-1.393-2.453zM185.502 70.483c-2.472-1.24-4.673-2.915-6.895-4.544-2.311-1.695-4.655-3.236-7.314-4.33-.995-.41-2.191.443-2.451 1.391-.315 1.145.391 2.041 1.391 2.453a23.425 23.425 0 0 1 3.204 1.734c1.146.728 2.246 1.525 3.34 2.328 2.16 1.587 4.309 3.204 6.712 4.41.962.483 2.16.256 2.727-.715.517-.884.251-2.242-.714-2.727zM175.168 73.951a283.942 283.942 0 0 1-12.577-9.442c-.842-.669-1.997-.821-2.819 0-.695.696-.846 2.146 0 2.819a303.51 303.51 0 0 0 13.383 10.064c.879.624 2.218.157 2.727-.714.585-1 .167-2.103-.714-2.727zM165.099 75.813a80.918 80.918 0 0 1-12.218-9.369c-.764-.71-2.072-.814-2.819 0-.708.77-.816 2.061 0 2.819a87.963 87.963 0 0 0 13.025 9.992c.885.555 2.235.216 2.728-.715.517-.981.228-2.134-.716-2.727zM156.703 79.151a299.2 299.2 0 0 1-12.282-9.7c-.801-.665-2.045-.842-2.82 0-.675.736-.856 2.107 0 2.819a322.764 322.764 0 0 0 13.09 10.323c.838.627 2.263.163 2.727-.715.552-1.046.18-2.058-.715-2.727zM147.349 82.263a549.746 549.746 0 0 0-11.933-10.333c-.797-.671-2.049-.84-2.819 0-.679.74-.852 2.102 0 2.818a557.797 557.797 0 0 1 11.934 10.333c.778.692 2.062.824 2.818 0 .696-.759.832-2.078 0-2.818zM138.255 84.84l-11.916-9.924c-.8-.666-2.045-.842-2.82 0-.674.736-.855 2.106 0 2.819l11.917 9.924c.8.666 2.046.842 2.819 0 .676-.737.855-2.106 0-2.819zM128.688 88.751a146.328 146.328 0 0 1-12.548-11.642c-.723-.754-2.101-.782-2.819 0-.743.81-.771 2.015 0 2.818a146.18 146.18 0 0 0 12.548 11.643c.804.662 2.043.845 2.819 0 .672-.732.859-2.11 0-2.819zM120.43 91.267a2.6 2.6 0 0 0-1.04-.519l-.073-.063-.788-.685-1.573-1.368c-1.083-.94-2.165-1.88-3.247-2.822-2.132-1.851-4.262-3.704-6.395-5.557-.812-.705-2.02-.799-2.818 0-.721.722-.817 2.11 0 2.819l8.165 7.096 4.034 3.507c.849.737 1.691 1.501 2.909 1.144 1.456-.423 2.085-2.538.826-3.552zM109.616 93.641c-4.229-3.111-8.377-6.652-12.22-10.404-.747-.729-2.085-.8-2.819 0-.723.787-.797 2.04 0 2.819a122.579 122.579 0 0 0 13.027 11.027c.843.62 2.26.168 2.726-.715.551-1.039.186-2.065-.714-2.727zM99.555 96.956A78.843 78.843 0 0 1 86.6 86.039c-.747-.777-2.069-.751-2.819 0-.777.776-.748 2.04 0 2.819a83.892 83.892 0 0 0 13.763 11.539c.893.603 2.208.174 2.727-.714.573-.98.181-2.125-.716-2.727zM91.312 101.435A132.77 132.77 0 0 1 76.76 89.576c-.784-.738-2.04-.778-2.818 0-.745.744-.788 2.079 0 2.818A139.625 139.625 0 0 0 89.3 104.877c.882.619 2.217.159 2.728-.715.582-.996.167-2.107-.716-2.727zM79.736 103.343a176.143 176.143 0 0 1-13.519-10.788c-.807-.711-2.024-.795-2.819 0-.725.725-.811 2.104 0 2.819a186.27 186.27 0 0 0 14.326 11.411c.874.629 2.22.151 2.728-.716.587-1.003.16-2.095-.716-2.726zM71.088 108.432a112.204 112.204 0 0 1-13.83-10.923c-.79-.73-2.037-.782-2.819 0-.739.74-.792 2.085 0 2.818a118.782 118.782 0 0 0 14.637 11.547c.895.599 2.207.173 2.728-.716.572-.977.181-2.125-.716-2.726zM208.398 62.56l-10.96-2.695c-2.716-.668-5.721-1.23-7.734-3.33-1.778-1.856-4.594.966-2.819 2.818 2.326 2.428 5.569 3.388 8.738 4.17 3.904.965 7.81 1.921 11.715 2.879 2.492.614 3.554-3.23 1.06-3.842zM61.792 111.215a954.614 954.614 0 0 1-14.565-11.267c-.844-.665-1.995-.822-2.818 0-.692.694-.85 2.15 0 2.82a1014.989 1014.989 0 0 0 15.371 11.889c.858.651 2.229.136 2.727-.715.598-1.022.146-2.074-.715-2.727zM51.953 113.704a186.753 186.753 0 0 1-16.209-10.086c-.884-.615-2.213-.162-2.726.715-.581.992-.172 2.111.714 2.726a186.672 186.672 0 0 0 16.209 10.087c2.246 1.243 4.259-2.199 2.012-3.442zM45.84 117.85a281.647 281.647 0 0 1-19.869-8.117c-.978-.444-2.144-.281-2.726.715-.501.856-.27 2.28.714 2.728a295.833 295.833 0 0 0 20.822 8.518c1.011.369 2.182-.415 2.452-1.392.304-1.11-.377-2.081-1.393-2.452zM45.587 124.083a297.3 297.3 0 0 0-22.055-6.143c-2.494-.592-3.559 3.251-1.059 3.844a298.686 298.686 0 0 1 22.055 6.143c2.449.785 3.497-3.063 1.059-3.844zM46.674 131.789a282.831 282.831 0 0 1-21.26-4.561c-2.488-.635-3.548 3.209-1.06 3.843a282.256 282.256 0 0 0 21.261 4.561c1.059.186 2.146-.284 2.451-1.391.264-.962-.326-2.265-1.392-2.452zM48.118 141.332l-20.977-5.45c-2.484-.644-3.545 3.2-1.059 3.845l20.977 5.448c2.484.645 3.545-3.198 1.059-3.843zM51.22 150.044a184.846 184.846 0 0 0-23.253-5.061c-1.063-.161-2.143.267-2.452 1.392-.259.942.321 2.29 1.392 2.451a184.865 184.865 0 0 1 23.254 5.062c2.47.707 3.525-3.138 1.059-3.844zM53.177 158.488c-7.6-.94-15.146-2.284-22.611-3.985-2.497-.57-3.565 3.273-1.059 3.843a237.334 237.334 0 0 0 23.67 4.128c1.07.133 1.993-1.011 1.993-1.993 0-1.187-.92-1.86-1.993-1.993zM56.908 168.928l-24.75-4.476c-1.058-.191-2.15.289-2.452 1.392-.265.966.328 2.26 1.392 2.452l24.751 4.476c1.059.192 2.148-.289 2.452-1.392.265-.966-.328-2.26-1.393-2.452zM58.535 178.874l-23.779-4.284c-1.059-.19-2.15.288-2.453 1.392-.265.966.327 2.261 1.392 2.453l23.781 4.283c1.058.192 2.148-.288 2.452-1.391.265-.967-.328-2.26-1.393-2.453zM60.512 188.52c-7.979-2.359-16.716-1.836-24.426-5.158-.988-.427-2.138-.293-2.728.715-.491.84-.279 2.299.716 2.727 8.095 3.488 17.019 3.088 25.379 5.56 2.464.73 3.518-3.118 1.059-3.844zM60.828 197.181c-1.91-.038-3.87-.726-5.729-1.138a539.638 539.638 0 0 0-18.148-3.699c-2.507-.466-3.582 3.375-1.059 3.845a549.072 549.072 0 0 1 18.611 3.801c2.072.462 4.191 1.134 6.325 1.177 2.566.051 2.566-3.935 0-3.986zM63.013 205.714c-4.099-.08-8.075-1.006-12.052-1.917-4.186-.957-8.37-1.916-12.556-2.875-2.497-.571-3.563 3.272-1.059 3.845 4.346.996 8.692 1.992 13.038 2.986 4.158.951 8.346 1.865 12.629 1.947 2.566.05 2.566-3.936 0-3.986zM65.036 215.519a155.188 155.188 0 0 1-24.646-4.237c-2.487-.636-3.548 3.209-1.06 3.844a161.8 161.8 0 0 0 25.706 4.38c1.074.095 1.993-.985 1.993-1.993 0-1.158-.916-1.897-1.993-1.994zM68.547 225.297a245.118 245.118 0 0 0-26.457-4.648c-1.07-.128-1.993 1.009-1.993 1.993 0 1.184.92 1.864 1.993 1.994a235.562 235.562 0 0 1 25.398 4.504c2.495.583 3.56-3.258 1.059-3.843zM68.634 233.63a301.22 301.22 0 0 1-24.814-4.088c-2.503-.519-3.574 3.323-1.06 3.844a313.321 313.321 0 0 0 25.874 4.23c1.07.131 1.993-1.009 1.993-1.993 0-1.184-.92-1.862-1.993-1.993zM69.13 241.672a118.42 118.42 0 0 0-11.777-1.973c-3.674-.43-7.543-.308-11.095-1.427-2.453-.773-3.502 3.075-1.061 3.844 3.623 1.141 7.538 1.062 11.284 1.471 3.896.425 7.762 1.086 11.59 1.929 2.499.551 3.568-3.291 1.059-3.844zM88.739 335.502a262.335 262.335 0 0 1-25.387-4.606c-2.496-.579-3.562 3.264-1.06 3.843a272.508 272.508 0 0 0 26.447 4.75c1.07.139 1.994-1.016 1.994-1.993 0-1.192-.921-1.853-1.994-1.994zM91.333 345.314a528.985 528.985 0 0 1-25.59-3.661c-1.061-.178-2.147.28-2.452 1.393-.263.956.325 2.273 1.392 2.452a552.329 552.329 0 0 0 26.65 3.803c1.072.126 1.993-1.007 1.993-1.993 0-1.183-.919-1.866-1.993-1.994zM93.163 357.189a170.426 170.426 0 0 1-24.973-3.841c-2.497-.576-3.563 3.268-1.06 3.844a177.68 177.68 0 0 0 26.033 3.983c2.559.2 2.546-3.788 0-3.986zM95.283 368.826l-24.714-4.674c-2.507-.476-3.582 3.366-1.06 3.843 8.238 1.557 16.476 3.117 24.715 4.675 2.507.474 3.581-3.367 1.059-3.844zM99.188 379.359a705.426 705.426 0 0 1-27.199-3.827c-1.062-.17-2.144.275-2.452 1.393-.261.949.323 2.281 1.392 2.452a732.378 732.378 0 0 0 28.259 3.969c1.07.129 1.993-1.009 1.993-1.994 0-1.184-.92-1.862-1.993-1.993zM100.398 390.777a753.593 753.593 0 0 1-26.219-3.653c-1.062-.167-2.144.272-2.453 1.392-.259.948.324 2.284 1.393 2.453a788.008 788.008 0 0 0 27.279 3.794c1.071.131 1.993-1.009 1.993-1.993 0-1.185-.919-1.862-1.993-1.993zM103.616 401.807a248.473 248.473 0 0 1-26.611-3.306c-1.058-.191-2.147.287-2.451 1.391-.265.966.327 2.261 1.392 2.452a258.666 258.666 0 0 0 27.67 3.449c2.561.18 2.55-3.808 0-3.986zM104.413 410.951a571.593 571.593 0 0 1-26.125-2.496c-1.07-.127-1.993 1.007-1.993 1.993 0 1.184.92 1.865 1.993 1.993a568.775 568.775 0 0 0 26.125 2.496c2.56.186 2.548-3.802 0-3.986zM109.424 420.884a1219.87 1219.87 0 0 0-30.147-3.427c-1.072-.109-1.993.993-1.993 1.993 0 1.167.918 1.884 1.993 1.993a1224.716 1224.716 0 0 1 30.147 3.428c1.069.135 1.993-1.014 1.993-1.994 0-1.189-.92-1.858-1.993-1.993zM111.26 429.753l-27.749-2.297c-2.556-.211-2.543 3.776 0 3.986l27.749 2.297c2.556.212 2.542-3.776 0-3.986zM113.508 439.375c-9.647-.551-19.336-1.132-28.71-3.645-2.48-.665-3.539 3.179-1.059 3.844 9.707 2.604 19.778 3.218 29.769 3.788 2.563.146 2.554-3.841 0-3.987zM116.607 450.401a1274.806 1274.806 0 0 0-29.169-4.47c-1.064-.15-2.14.26-2.451 1.393-.257.933.319 2.3 1.392 2.451a1270.04 1270.04 0 0 1 29.168 4.469c1.061.176 2.145-.277 2.452-1.391.262-.954-.324-2.276-1.392-2.452zM119.821 459.685a473.409 473.409 0 0 1-30.569-5.355c-2.504-.523-3.574 3.319-1.06 3.844a473.554 473.554 0 0 0 30.57 5.354c1.064.151 2.14-.26 2.451-1.391.256-.935-.32-2.301-1.392-2.452zM73.047 250.13c-8.482-1.176-17.319.232-25.605-2.267-2.462-.742-3.514 3.105-1.06 3.844 8.353 2.519 17.085 1.086 25.606 2.267 1.065.149 2.14-.258 2.452-1.391.256-.932-.319-2.304-1.393-2.453zM74.397 258.071c-8.156-1.209-16.383-1.557-24.608-.934-2.543.192-2.564 4.181 0 3.986 7.848-.593 15.76-.363 23.549.791 1.064.158 2.142-.264 2.452-1.391.258-.939-.321-2.294-1.393-2.452zM75.703 265.978a393.75 393.75 0 0 0-24.294-.817c-2.565-.007-2.569 3.98 0 3.987a393.75 393.75 0 0 1 24.294.816c2.562.165 2.551-3.821 0-3.986zM76.923 275.201a132.956 132.956 0 0 0-24.08-.99c-2.554.128-2.569 4.114 0 3.987 8.042-.4 16.097-.068 24.08.989 1.069.143 1.993-1.017 1.993-1.993 0-1.194-.921-1.851-1.993-1.993zM77.543 283.852a278.796 278.796 0 0 0-22.858.24c-2.554.132-2.569 4.119 0 3.987a278.35 278.35 0 0 1 22.858-.241c2.567.079 2.564-3.907 0-3.986zM80.997 293.839a177.66 177.66 0 0 0-24.687-1.518c-2.564.021-2.57 4.008 0 3.987 8.256-.069 16.502.438 24.687 1.517 1.07.142 1.993-1.017 1.993-1.993 0-1.194-.92-1.851-1.993-1.993zM82.841 302.068a705.768 705.768 0 0 1-24.708-1.64c-2.556-.216-2.541 3.771 0 3.986a703.346 703.346 0 0 0 24.708 1.64c2.564.126 2.557-3.861 0-3.986zM83.886 310.416a2040.28 2040.28 0 0 1-24.715-1.656c-2.065-.15-2.585 2.734-1.007 3.713l.431.268c.667.414 1.314.377 1.834.093 7.816.567 15.634 1.091 23.457 1.569 2.562.155 2.553-3.832 0-3.987zM86.321 318.076c-8.285-.142-16.566-.749-24.777-1.878-1.065-.147-2.14.258-2.452 1.392-.256.93.318 2.304 1.392 2.453 8.57 1.178 17.187 1.872 25.837 2.019 2.567.044 2.568-3.943 0-3.986zM88.678 326.722a170.824 170.824 0 0 0-26.454-2.74c-2.566-.064-2.565 3.923 0 3.987 8.523.21 17.007 1.066 25.394 2.597 2.508.457 3.584-3.384 1.06-3.844z" fill="#ffffff" opacity="1" data-original="#000000" class=""></path><path fill="#ffffff" d="M202.101 190.432c-1.067-2.377-2.863-4.856-3.916-6.913-2.139-4.178-4.828-8.033-7.149-12.108a8.301 8.301 0 0 1-1.206.095c-2.433 0-4.918-.252-7.421-.553-4.842.652-9.753.723-14.644.412 4.16 7.102 8.326 14.202 12.534 21.278.281.473.473.941.599 1.403a89.387 89.387 0 0 1 3.181-.166c6.097-.234 12.784-.043 18.76-1.286-.147-.701-.407-1.427-.738-2.162z" opacity="1" data-original="#ff9900" class=""></path><path fill="#ffffff" d="M255.175 327.561c-7.875-12.314-17.32-23.483-26.019-35.175-8.77-11.789-14.346-25.543-23.089-37.402-10.229-13.871-19.291-28.651-29.328-42.674-.096-.133-.174-.278-.257-.417-4.28-.484-7.693-4.704-7.693-8.908 0-2.485.789-4.261 2.05-5.557a4090.93 4090.93 0 0 1-12.984-22.046 7.945 7.945 0 0 1-2.898-1.028c-2.687.256-5.446-.539-7.777-2.822-1.364-1.337-2.246-2.753-2.737-4.188-1.611-2.341-2.178-5.43-.976-9.161 1.387-4.302 4.828-6.654 8.636-7.257 1.239-.834 2.761-1.383 4.567-1.503 8.96-.594 25-2.814 34.621 2.292l.125.013c4.001.551 5.973 3.363 6.327 6.584.273.589.523 1.199.723 1.857.511 1.68.441 3.369-.048 4.916 2.235 4.168 4.977 8.022 7.233 12.175 1.404 2.587 2.591 5.314 3.989 7.912.5.265.983.655 1.425 1.215.936 1.184 1.845 2.389 2.781 3.574l-.032.023c.086.1.167.203.251.305.184.086.37.171.563.219 1.691.418 4.505-.651 6.25-.879 5.76-.755 11.508-1.196 17.207-2.292.379-.446.632-.983.676-1.661.213-3.265-1.705-6.611-2.812-9.582-2.262-6.071-4.331-12.215-6.117-18.444-1.805-6.297-2.549-12.778-4.266-19.075a3307.62 3307.62 0 0 0-3.179-11.292 3289.053 3289.053 0 0 0-6.214-21.609c-.597-2.048-2.804-3.389-4.903-2.783a1851.74 1851.74 0 0 0-139.842 46.448c-1.477.557-2.295 1.685-2.578 2.923-1.392.814-2.399 2.342-2.042 4.342 5.131 28.754 11.247 57.307 17.865 85.753-.934 1.339-1.324 3.091-.744 5.151l28.785 102.136c-.513-.048-1.027-.087-1.543-.162 1.61 6.348 3.22 12.696 4.818 19.046l15.234 60.527c.517 2.052 2.872 3.397 4.904 2.785l37.997-11.458c4.944-1.491 9.893-2.966 14.834-4.465 4.812.34 9.538-1.284 14.092-3.157 19.27-4.679 38.123-10.791 56.488-18.185.22-.611.44-1.218.661-1.823 3.717-10.154 8.572-19.788 13.175-29.551 2.004-4.252 2.886-8.808 3.75-13.376-10.264-4.3-16.136-13.175-21.949-22.264z" opacity="1" data-original="#ff9900" class=""></path><path d="M189.601 412.403c-6.207 1.912-12.464 3.657-18.738 5.331-12.539 3.342-25.161 6.355-37.704 9.683 1.287-.347-5.682-26.265-6.122-28.011-3.701-14.654-7.56-29.269-11.433-43.878-4.161-15.687-8.381-31.373-11.778-47.246-1.423-6.649-2.297-13.459-3.965-20.044-2.334-9.217-4.556-18.391-6.762-27.624-6.975-29.184-12.996-58.64-18.394-88.159a1796.235 1796.235 0 0 1-3.351-18.906c47.7-14.112 93.441-34.188 141.474-47.238.61-.142 8.973 33.181 9.667 35.874 1.767 6.859 3.648 13.699 5.39 20.555 2.169 8.536 4.38 17.058 6.616 25.571 2.666-.433 5.374-.643 7.812-.934-1.113-4.435-2.224-8.871-3.34-13.306-3.349-13.323-6.743-26.644-10.251-39.936-2.96-11.213-6.009-22.402-9.223-33.544-1.58-5.473-9.687-1.757-13.042-.814a599.765 599.765 0 0 0-17.944 5.358c-11.906 3.747-23.71 7.813-35.472 11.988-23.532 8.349-46.914 17.142-70.709 24.727a629.37 629.37 0 0 1-16.843 5.126c-3.1.895-2.742 3.795-2.24 6.318.824 4.145 1.435 8.343 2.173 12.505a1783.77 1783.77 0 0 0 15.049 75.264c3.29 14.793 7.219 29.436 10.552 44.219 3.275 14.525 6.149 29.128 9.615 43.613.885 3.697 1.788 7.389 2.712 11.076.64 2.559 1.743 5.007 2.299 7.585 3.049 14.115 7.168 27.985 10.649 42.009a1175.132 1175.132 0 0 1 10.025 43.977c.555 2.672 2.987 3.305 4.988 2.572.188-.025.374-.042.571-.094 16.424-4.424 33.007-8.221 49.508-12.342 15.832-3.956 31.415-8.924 46.91-14.026a875.746 875.746 0 0 0 29.63-10.365 181.58 181.58 0 0 1 2.269-6.535c.244-.666.504-1.323.757-1.984-1.823.659-3.105 1.116-3.493 1.263-22.323 8.387-45.192 13.39-67.862 20.372z" fill="#ffffff" opacity="1" data-original="#000000" class=""></path><path d="M90.249 462.962c-1.422-4.457-2.363-9.043-3.306-13.623l-3.355-16.263c-2.201-10.681-4.404-21.361-6.606-32.042l-3.804-18.447c-.023-.111-.059-.205-.094-.3-2.451-12.795-5.105-25.548-7.587-38.335-2.432-12.537-4.248-25.19-6.729-37.711-4.601-23.217-9.34-46.41-13.293-69.748-.888-5.247-1.785-10.491-2.779-15.717-2.452-12.905-4.994-25.793-7.456-38.698-.542-2.837-1.079-5.676-1.611-8.515-1.282-7.123-2.658-14.232-3.968-21.35-.659-3.576-1.314-7.154-1.965-10.733-.641-3.524-1.109-7.131-1.904-10.621-.302-1.325-.645-2.606-.856-3.962a108.372 108.372 0 0 1-.593-4.545c-.294-2.581-.597-5.222-.032-7.774 1.091-3.898 5.044-6.476 8.67-8.012 5.426-2.3 11.145-4.038 16.711-5.966a1627.355 1627.355 0 0 1 143.26-42.365c.437-.109.879-.193 1.314-.308.427-.115.84-.356 1.268-.436.754-.142 1.547.281 2.265.443.99.224 1.978.449 2.967.678a548.802 548.802 0 0 1 12.578 3.066 2418.99 2418.99 0 0 0-44.969 13.332 2432.838 2432.838 0 0 0-100.083 33.142c-4.34 1.542-8.724 2.951-13.059 4.501a142.9 142.9 0 0 0-6.338 2.416c-1.8.741-4.028 1.386-5.441 2.787-2.589 2.565-.508 7.371.226 10.261 1.081 4.257 2.143 8.52 3.188 12.787 2.088 8.531 4.104 17.08 6.062 25.641 3.916 17.122 7.597 34.296 11.15 51.497 3.72 18.014 7.293 36.059 10.9 54.096a6227.642 6227.642 0 0 0 5.514 27.319c1.805 8.822 4.469 17.818 5.575 26.748.618 4.998 1.548 9.815 2.564 14.727.75 3.628 1.475 7.262 2.24 10.887 1.494 7.066 3.047 14.12 4.56 21.18a2099.797 2099.797 0 0 0 5.34 23.918c5.751 25.049 12.044 49.974 19.133 74.68a1049.12 1049.12 0 0 1-29.657-8.635zm164.995-38.164c-1.135.471-2.263.953-3.402 1.412a1141.979 1141.979 0 0 1-25.775 10.044 1340.22 1340.22 0 0 1-22.814 8.341 899.916 899.916 0 0 1-31.588 10.581 908.89 908.89 0 0 1-44.513 12.761c-1.729.447-24.172-97.846-26.084-106.81-4.544-21.308-8.553-42.738-13.062-64.071-7.094-33.562-13.168-67.275-20.332-100.843-5.233-24.517-10.841-48.952-17.07-73.235a2430.562 2430.562 0 0 1 166.103-53.96c5.629 25.546 11.315 51.099 17.67 76.475l.082.011c.77.083 3.55 14.337 3.948 15.855a3097.603 3097.603 0 0 0 6.84 25.647c2.738-.354 5.475-.705 8.214-1.061-.211-.726-.416-1.454-.63-2.179-1.53-5.182-2.969-10.388-4.396-15.599a767.09 767.09 0 0 1-6.787-26.868 4.168 4.168 0 0 0-.309-.885 1836.959 1836.959 0 0 1-6.421-26.695 3331.484 3331.484 0 0 1-7.273-32.111c-.713-3.214-1.425-6.428-2.133-9.643l-1.064-4.822c-1.177-5.341-3.41-7.598-8.799-8.99a584.264 584.264 0 0 0-7.041-1.772 488.362 488.362 0 0 0-6.244-1.486c-1.043-.241-2.085-.48-3.128-.718-1.669-.377-3.245-.614-4.954-.297-2.484.456-4.932 1.15-7.38 1.76a1662.224 1662.224 0 0 0-37.605 9.866 1565.386 1565.386 0 0 0-28.344 8.074A1626.86 1626.86 0 0 0 39.5 99.95c-3.125 1.104-6.299 2.134-9.314 3.521-5.048 2.322-9.627 6.678-10.12 12.476-.182 2.136.049 4.282.291 6.405.391 3.448.88 6.916 1.693 10.293.829 3.441 1.292 7.01 1.925 10.494 1.3 7.153 2.615 14.302 3.941 21.448a9628.677 9628.677 0 0 0 4.004 21.436 24571.56 24571.56 0 0 0 4.035 21.431l2.524 13.394c2.937 15.616 5.602 31.254 8.667 46.845l6.031 30.69.006.029c1.763 8.972 3.309 17.982 5.011 26.966 3.718 19.606 7.45 39.207 11.206 58.805.032.165.079.313.137.447 4.37 21.195 8.74 42.39 13.112 63.584 1.202 5.835 2.304 11.717 4.267 17.356.176.507.566.846 1.048 1.1.193.157.423.287.706.374a1555.755 1555.755 0 0 0 32.272 9.477c1.43.404 2.748.99 4.229.542.873-.263 1.739-.517 2.614-.766 2.895-.825 5.806-1.792 8.741-2.579a904.288 904.288 0 0 0 53.686-16.193c10.453-3.511 20.751-7.457 31.057-11.377 10.051-3.822 20.226-7.312 30.229-11.252a429.205 429.205 0 0 0 11.524-4.754c-3.044-.017-6.59-2.45-7.778-5.344z" fill="#ffffff" opacity="1" data-original="#000000" class=""></path><path fill="#ffffff" d="M473.151 187.266c-.015-.023-.023-.045-.038-.066a2.067 2.067 0 0 0-.097-.14 1.398 1.398 0 0 1-.078-.103c-.008-.008-.007-.01-.016-.019a7.344 7.344 0 0 0-.542-.56 8.659 8.659 0 0 0-.318-.283c-.009-.008-.021-.016-.031-.023-.343-.229-.128-.1 0 0l.098.064c-.224-.147-.435-.318-.66-.467a16.93 16.93 0 0 0-1.428-.833c-1.143-.6-2.343-1.094-3.518-1.636-71.612 5.138-143.346 9.455-214.874 15.63a582.804 582.804 0 0 1-21.375 2.907c-6.921.818-13.856 1.364-20.709 2.656-3.392.638-6.805 1.346-10.238 1.863a93.87 93.87 0 0 1-9.128 2.034c-.214.677-.147 1.459.371 2.259l47.396 73.377 23.699 36.688c4.5 6.966 11.318 22.723 22.109 16.73.595-.332.982-.769 1.212-1.25 36.506-9.492 71.183-24.49 106.626-37.18 17.897-6.407 36.017-12.107 54.566-16.314 15.298-3.468 31.329-9.937 30.959-28.211-.449-22.109-2.855-44.36-4.452-66.444.19-.204.339-.436.466-.679zM196.56 161.12c-.376-1.876-.929-3.864-1.938-5.51-1.003-1.638-2.512-2.893-4.436-3.235-2.127-.38-4.412-.15-6.564-.136l-15.538.103a9.56 9.56 0 0 0-1.105-.571c-.984-.434-2.14-.288-2.727.715-.495.847-.275 2.29.716 2.727 4.873 2.148 4.547 8.236 4.193 12.681-.11 1.394 1.357 2.138 2.524 1.923a63.839 63.839 0 0 1 13.43-1.037c2.207.061 4.417.227 6.605.522 2.111.285 4.413.324 5.174-2.129.572-1.846.034-4.219-.334-6.053z" opacity="1" data-original="#ff9900" class=""></path><path fill="#1640d6" d="M192.87 159.672a6.35 6.35 0 0 0-2.505-2.585 2.08 2.08 0 0 0-1.536-.2c-.462.126-.963.484-1.191.916-.496.939-.257 2.183.716 2.726.092.052.177.118.266.175.197.168.379.351.545.549.107.163.203.332.29.506.079.219.141.445.187.674.017.263.02.527-.01.79-.054.475.262 1.088.584 1.41.345.345.912.606 1.409.583.516-.022 1.05-.192 1.41-.583l.311-.403c.18-.311.271-.646.272-1.007.139-1.218-.195-2.471-.748-3.551z" opacity="1" data-original="#ffffff" class=""></path><path d="M480.85 397.209c-1.684 1.939-4.607 2.38-6.997 2.788-.929.158-1.859.307-2.788.461-6.032.988-12.036 2.126-18.053 3.205-5.748 1.031-11.582 1.571-17.321 2.646-7.697 1.272-15.395 2.546-23.092 3.82l-4.619.762-75.069 12.417c-4.686.775-9.526 1.54-14.282 2.248-7.633 1.136-15.282 2.319-22.966 3.039-6.15.574-12.324.934-18.502.966-5.072.026-10.686.335-15.545-1.385-2.064-.73-3.844-2.051-4.877-4.006-1.094-2.068-1.123-4.57-.845-6.84.3-2.453 1.029-4.85 1.773-7.199a555.939 555.939 0 0 1 15.717-43.309 543.03 543.03 0 0 1 6.623-15.422c7.788-.839 16.416-4.696 22.101-6.549l46.704-15.238a5869.088 5869.088 0 0 0 39.392-12.992c11.062-3.696 22.491-6.899 33.497-10.895-3.129 6.112-10.35 9.211-16.667 11.334-9.554 3.21-19.159 6.276-28.74 9.41l-58.089 19.007c-5.351 1.752-10.704 3.502-16.056 5.253-3.746 1.227-8.2 2.279-10.95 5.318-3.414 3.771-4.8 10.535-6.647 15.195a681.551 681.551 0 0 0-12.806 35.067c-1.37 4.092-5.412 12.354 1.28 13.967 2.648.638 5.692.001 8.36-.205a1099.424 1099.424 0 0 0 27.975-2.52 1117.83 1117.83 0 0 0 37.391-4.497 1099.06 1099.06 0 0 0 73.647-12.665c12.217-2.531 24.362-5.552 36.705-7.429 6.036-.918 12.154-1.534 18.266-1.552 1.808-.006 4.098.017 5.601 1.188 1.564 1.219 1.023 3.294-.121 4.612zm-35.828 24.665a677.693 677.693 0 0 1 2.942-13.576l7.422-1.227c-3.573 4.845-6.835 9.932-10.364 14.803zm-10.033 20.381c-6.385-4.606-4.607-13.118 1.187-16.679a648.68 648.68 0 0 0-1.779 9.364c-.691 3.809 3.622 6.778 6.663 3.88 3.056-2.914 5.734-6.125 8.246-9.467 2.796 7.6-6.464 18.568-14.317 12.902zm-146.471 4.404c.559-4.419 1.175-8.83 1.862-13.235.022-.144.015-.278.024-.419 3.419-.247 6.834-.564 10.244-.942-3.995 4.912-7.902 9.9-12.13 14.596zm2.502 15.708c-2.268 3.547-6.435 4.571-10.17 2.472-6.644-3.736-7.29-14.34-.43-17.167a480.783 480.783 0 0 0-1.13 9.873c-.384 3.716 4.473 4.876 6.805 2.818 2.33-2.055 4.52-4.238 6.624-6.497.733 2.742-.325 6.354-1.699 8.501zm-17.509-119.608c-.024-.019-.05-.04-.075-.058-1.973-1.598-3.45-4.37-4.993-6.375a1355.385 1355.385 0 0 1-20.614-27.481l-6.559-9.934-52.797-79.964c-1.54-2.334-3.081-4.668-4.623-7.001 1.081-.1 2.16-.204 3.24-.304a2145.239 2145.239 0 0 0 50.384 77.391 2128.17 2128.17 0 0 0 26.556 38.033c2.255 3.158 4.491 6.335 6.795 9.456 2.058 2.787 4.446 4.775 8.076 4.78 3.293.005 6.54-1.317 9.63-2.304a787.444 787.444 0 0 0 10.897-3.569c28.841-9.663 57.159-20.795 85.787-31.057 14.209-5.093 28.5-9.974 42.949-14.346a561.565 561.565 0 0 1 21.792-6.135c5.965-1.546 12.123-2.888 17.553-5.919 5.538-3.087 9.425-8.034 10.879-14.233 1.533-6.532.825-13.37.463-19.992l-2.633-48.129-.563-10.283a38.508 38.508 0 0 0 3.044-.351c-.519.079.468 18.15.542 19.85.287 6.749.682 13.494 1.186 20.231.557 7.417 1.645 14.781 2.281 22.19.506 5.865 1.548 11.882.459 17.744-1.297 6.972-6.143 10.58-12.209 13.584-5.385 2.665-10.977 4.877-16.606 6.965-3.046 1.129-6.031 2.419-9.095 3.497-2.846 1-5.84 1.481-8.632 2.546-6.249 2.381-12.45 4.86-18.751 7.11-12.614 4.504-25.377 8.576-38.145 12.616-7.905 2.502-15.814 4.99-23.697 7.561l-41.097 13.407c-6.789 2.216-13.568 4.46-20.368 6.641-5.397 1.73-15.615 8.102-21.056 3.833zm-73.765-132.304c24.13-2.323 48.24-4.866 72.346-7.43 47.549-5.059 95.099-10.201 142.778-13.902a2101.277 2101.277 0 0 1 36.257-2.508c5.884-.354 11.769-.68 17.657-.975.953-.048 1.921-.08 2.895-.112l2.476 45.25c.405 7.408 1.003 14.835 1.155 22.252.124 6.049-.375 12.747-4.627 17.461-3.881 4.3-9.567 6.274-14.998 7.788-6.721 1.873-13.502 3.512-20.21 5.436-14.158 4.062-28.156 8.665-42.057 13.53-28.019 9.807-55.65 20.68-83.682 30.451a898.25 898.25 0 0 1-20.965 7.042c-3.104.997-6.56 2.581-9.87 2.578-3.434-.003-5.104-3.452-6.87-5.903a2140.434 2140.434 0 0 1-76.103-113.129c-1.474-2.349-2.939-4.704-4.403-7.057 2.741-.256 5.481-.508 8.221-.772zm-37.293-33.262c-1.628-3.01-3.243-6.025-4.846-9.049-.778-1.467-1.753-2.953-2.268-4.539-.133-.41-.261-.871-.232-1.314.027-.018.053-.047.081-.068.11-.082.174-.408.333-.537 1.614-1.29 4.384 4.242 5.059 5.308a454.402 454.402 0 0 1 2.067 3.29c.347.51.659 1.041.954 1.582.842 1.061 1.642 2.17 2.149 3.424.039.014.07.036.11.05l.965 1.527 9.793 15.481c-1.74.322-3.447.729-5.103 1.299a1288.252 1288.252 0 0 1-9.062-16.454zM151 169.049c-1.203-1.068-2.129-2.464-2.56-4.015-.573-2.057-.26-4.494 1.207-6.119 2.566-2.843 7.282-4.655 10.703-2.146a8.355 8.355 0 0 1 2.72 3.369 7.87 7.87 0 0 1 .585 2.068c.106.751-.014 1.527.171 2.264-.141-.563-.867-1.318-1.186-1.799a57.864 57.864 0 0 0-1.446-2.089c-.892-1.22-1.99-2.273-3.385-2.761-.242-.289-.559-.502-.941-.562-1.781-.282-3.528.399-4.605 1.864-.839 1.14-1.178 2.611-1.054 4.022.129 1.47.729 2.858 1.403 4.17a70.962 70.962 0 0 0 1.63 2.945c-1.174.226-2.346-.419-3.242-1.211zm29.543-13.32c3.313-.03 7.434-.802 10.634.012 4.261 1.083 5.236 7.655 3.567 11.467-7.729.329-15.465.36-23.201.37.765-4.078.281-8.132-2.006-11.749zm18.516 18.702c.232-.145.448-.307.658-.473a439.422 439.422 0 0 0 9.715 14.772l-4.793.497c-2.633-4.626-5.429-9.157-8.261-13.662a9.932 9.932 0 0 0 2.681-1.134zm-17.673 17.215c-.155.017-.307.04-.461.058l-10.217-16.152c4.028-.004 8.054-.007 12.08-.052 2.831-.031 6.068.526 9.188.547 2.838 4.505 5.657 9.023 8.328 13.629-6.306.652-12.622 1.236-18.918 1.97zm302.245 198c-1.858-1.526-4.26-2.028-6.607-2.18-2.871-.187-5.806.035-8.67.238-6.379.45-12.72 1.387-19.006 2.546-12.452 2.295-24.774 5.274-37.189 7.76a1104.49 1104.49 0 0 1-37.485 6.831 1092.176 1092.176 0 0 1-94.993 11.375c-1.359.103-2.723.244-4.086.291-.675.023-2.037.151-2.386-.617-.416-.913.433-2.61.708-3.455a682.907 682.907 0 0 1 14.478-40.132c1.767-4.458 3.396-9.136 5.683-13.394 2.47-2.676 6.799-3.572 10.075-4.643l14.64-4.79 29.281-9.582c19.269-6.304 38.584-12.486 57.811-18.92 8.626-2.886 18.384-7.485 20.766-17.118.324-.127.654-.246.978-.376a107.58 107.58 0 0 0 5.069-1.812c13.953-5.427 28.745-9.477 42.283-16.201 9.184-4.562 16.764-12.35 17.009-23.103.14-6.171-1.269-12.536-1.92-18.667a628.733 628.733 0 0 1-1.835-20.559c-.993-13.711-1.502-27.447-1.601-41.193 4.7-3.608 6.976-10.247 2.65-15.298-5.545-6.475-15.801-4.953-23.242-4.37-7.649.6-15.295 1.273-22.939 1.973-2 3.685-5.028 6.828-8.612 9.075 5.407-.564 10.814-1.124 16.223-1.669 4.786-.483 9.574-.943 14.368-1.328 4.394-.355 9.165-1.168 13.561-.442 3.617.6 7.21 3.275 2.654 6.057-4.071 2.485-10.861 1.636-15.458 1.874a1878.35 1878.35 0 0 0-31.376 1.899c-41.823 2.871-83.545 7.015-125.232 11.394-23.46 2.467-46.909 5.009-70.372 7.444a5444.336 5444.336 0 0 1-34.223 3.455c-5.868.572-11.737 1.132-17.608 1.676-2.262.21-4.523.42-6.786.626-1.172.107-2.345.212-3.518.315-1.007.089-2.108.528-3.114.24a1.705 1.705 0 0 1-1.054-.891c-.584-1.214.368-2.478 1.39-3.046 1.741-.97 4.005-1.052 5.94-1.354 2.472-.381 4.962-.778 7.457-.972 3.792-.296 7.598-.423 11.384-.789l31.526-3.275 63.053-6.547c5.027-.521 10.054-1.042 15.081-1.566-4.335-1.184-8.094-3.599-11.004-6.829l-55.307 5.742-28.162 2.924a434.318 434.318 0 0 1-11.658-17.759c1.399-3.259 1.435-7.444.99-10.572-.773-5.422-3.943-10.638-9.613-11.846-5.4-1.15-11.532-.342-17.008-.294-8.894.082-19.258-1.37-27.706 2.15-7.119 2.965-10.562 10.876-7.627 18.012 2.749 6.686 9.356 12.324 16.644 9.241.122-.051 4.789 8.807 5.233 9.615a1195.64 1195.64 0 0 0 2.677 4.846c.447.808.896 1.613 1.345 2.419.384.688.871 1.211.279 1.889-.899 1.031-1.897 1.884-2.455 3.158-1.764 4.026-.772 9.211 3.054 11.672 1.905 1.226 4.033 1.67 6.218 1.772.09.231.191.463.334.699a1372.93 1372.93 0 0 0 44.505 68.815 1393.633 1393.633 0 0 0 23.635 33.219 1388.396 1388.396 0 0 0 12.055 16.187c2.336 3.09 4.928 6.328 7.294 9.526 2.093 2.83 3.876 6.614 6.938 8.525.602.376 6.201 2.852 6.591 1.97-4.647 10.507-9.001 21.144-13 31.916a557.33 557.33 0 0 0-6.296 17.886c-1.774 5.33-3.933 10.778-4.476 16.409-.491 5.079 1.172 10.132 5.671 12.905 4.339 2.673 9.812 2.762 14.746 2.88 3.366.08 6.729.049 10.089-.065a551.674 551.674 0 0 0-.85 5.823c-6.887 1.19-12.652 6.005-13.894 13.223-1.358 7.9 3.213 16.522 10.468 19.881 6.945 3.216 15.217 1.159 19.404-5.359 3.608-5.615 4.972-13.994.854-19.56 4.677-5.594 9.111-11.411 13.937-16.883 12.083-1.711 24.114-3.814 36.153-5.804l38.516-6.371 52.53-8.688a747.42 747.42 0 0 0-1.463 6.766 4.385 4.385 0 0 0-.939.135c-16.261 4.134-19.41 27.479-3.099 34.079 16.339 6.612 29.512-15.364 20.311-28.341 4.069-5.929 8.038-11.938 12.923-17.226l6.09-1.008c2.679-.442 5.403-.846 7.827-2.146 4.337-2.329 6.889-8.698 2.49-12.313z" fill="#ffffff" opacity="1" data-original="#000000" class=""></path><path fill="#1640d6" d="M281.394 314.468a795.357 795.357 0 0 1-37.377-69.455 797.032 797.032 0 0 1-9.257-20.185c-.436-.986-1.873-1.215-2.727-.716-1.016.594-1.153 1.739-.715 2.727a795.58 795.58 0 0 0 35.418 70.475 806.176 806.176 0 0 0 11.216 19.167c1.324 2.194 4.772.191 3.442-2.013zM289.042 289.517l-23.782-56.326-6.767-16.027c-.418-.992-1.883-1.208-2.727-.715-1.027.6-1.135 1.731-.715 2.727l23.782 56.326 6.766 16.028c.419.992 1.884 1.207 2.727.714 1.028-.6 1.136-1.73.716-2.727zM319.507 306.719a869.455 869.455 0 0 0-22.37-59.06 904.373 904.373 0 0 0-7.099-16.406c-.437-.983-1.871-1.214-2.727-.714-1.014.592-1.154 1.739-.715 2.727a860.835 860.835 0 0 1 29.066 74.512c.818 2.418 4.67 1.38 3.845-1.059z" opacity="1" data-original="#ffffff" class=""></path><path fill="#1640d6" d="M458.91 213.203c-.315-1.147-1.381-1.545-2.452-1.392-29.552 4.2-59.105 8.401-88.656 12.603l-52.23 7.424c-.596-1.459-1.189-2.918-1.796-4.372a638.574 638.574 0 0 0-6.483-14.995c-.44-.983-1.87-1.217-2.727-.715-1.011.591-1.157 1.74-.716 2.727a612.366 612.366 0 0 1 7.677 17.929c-10.63 1.512-21.259 3.024-31.89 4.534-16.451 2.339-32.894 4.95-49.443 6.508-1.071.099-1.993.843-1.993 1.993 0 .999.915 2.094 1.993 1.993 14.844-1.397 29.592-3.677 44.347-5.774l38.518-5.477a613.322 613.322 0 0 1 10.681 28.62 1545.633 1545.633 0 0 1-42.64 8.664 1571.828 1571.828 0 0 1-17.191 3.134c-1.061.187-1.658 1.483-1.392 2.452.307 1.119 1.388 1.579 2.451 1.392a1546.256 1546.256 0 0 0 60.078-11.841 627.556 627.556 0 0 1 4.682 14.418c.76 2.443 4.609 1.4 3.844-1.059a616.018 616.018 0 0 0-4.624-14.228c4.562-1.006 9.123-2.018 13.677-3.066 2.498-.574 1.441-4.419-1.061-3.844a1604.141 1604.141 0 0 1-13.903 3.125 619.744 619.744 0 0 0-10.558-28.341l1.766-.251 88.902-12.637 49.747-7.072c1.067-.152 1.651-1.509 1.392-2.452z" opacity="1" data-original="#ffffff" class=""></path><path fill="#1640d6" d="m450.79 236.681-67.665 14.153-19.16 4.008c-2.509.524-1.448 4.368 1.06 3.844l67.665-14.153 19.159-4.008c2.51-.525 1.449-4.368-1.059-3.844zM393.477 278a1320.604 1320.604 0 0 0-87.004 26.257c-2.416.82-1.378 4.672 1.061 3.844a1320.878 1320.878 0 0 1 87.003-26.257c2.477-.656 1.427-4.502-1.06-3.844zM444.445 263.496l-26.298 7.581c-2.459.709-1.414 4.558 1.06 3.845l26.298-7.583c2.46-.708 1.414-4.557-1.06-3.843z" opacity="1" data-original="#ffffff" class=""></path><path fill="#1640d6" d="M418.829 259.641a933.038 933.038 0 0 0-11.986-55.871c-.615-2.489-4.46-1.435-3.844 1.06a932.225 932.225 0 0 1 11.986 55.87c.46 2.52 4.302 1.453 3.844-1.059zM447.252 276.753l-9.757-52.917-2.801-15.189c-.463-2.519-4.306-1.452-3.843 1.061l9.756 52.915 2.801 15.19c.464 2.519 4.307 1.452 3.844-1.06zM467.131 262.018l-6.86-35.129c-.491-2.516-4.334-1.45-3.844 1.059l6.86 35.129c.491 2.516 4.334 1.452 3.844-1.059zM377.296 263.137a431.253 431.253 0 0 1-14.711-44.513c-.671-2.473-4.518-1.424-3.844 1.06a431.32 431.32 0 0 0 14.712 44.512c.392 1.002 1.335 1.699 2.451 1.392.956-.262 1.787-1.443 1.392-2.451z" opacity="1" data-original="#ffffff" class=""></path><path d="M262.11 443.903c-.871-.509-2.261-.26-2.727.715-3.384 7.068-3.952 15.288-1.328 22.703.358 1.014 1.36 1.691 2.451 1.392.982-.271 1.753-1.433 1.392-2.452-2.257-6.379-2.008-13.502.926-19.631.466-.97.268-2.153-.714-2.727zM253.566 464.069c-2.462-4.278-2.844-9.344-1.202-13.959.36-1.014-.408-2.182-1.393-2.453-1.102-.302-2.088.375-2.45 1.394-1.982 5.57-1.34 11.918 1.602 17.03 1.28 2.223 4.726.217 3.443-2.012zM422.144 454.352c-6.335-8.13-8.099-19.343-4.924-29.088.797-2.446-3.051-3.492-3.844-1.06-3.651 11.204-1.259 23.717 5.95 32.967.661.85 2.123.694 2.818 0 .839-.839.665-1.967 0-2.819zM412.207 448.413c-3.832-4.045-5.46-9.965-4.21-15.392.241-1.048-.324-2.158-1.392-2.451-1.007-.277-2.21.339-2.453 1.391-1.574 6.842.404 14.171 5.236 19.271 1.767 1.866 4.584-.956 2.819-2.819z" fill="#ffffff" opacity="1" data-original="#000000" class=""></path><path fill="#1640d6" d="m178.476 257.698-62.379 5.996c-1.071.102-1.993.842-1.993 1.993 0 .998.916 2.097 1.993 1.993l62.379-5.995c1.072-.104 1.994-.843 1.994-1.993 0-.999-.915-2.098-1.994-1.994zM178.507 276.165l-35.871 6.66c-2.518.467-1.452 4.31 1.06 3.843 11.957-2.219 23.914-4.438 35.871-6.659 2.519-.466 1.453-4.31-1.06-3.844zM185.432 292.107c-.265-.966-1.439-1.775-2.452-1.391l-50.339 19.024c-1.006.38-1.696 1.345-1.392 2.451.265.966 1.439 1.776 2.452 1.393l50.34-19.025c1.005-.381 1.696-1.346 1.391-2.452zM189.041 309.71c-.589-1.008-1.743-1.162-2.727-.716l-19.797 8.995c-.979.444-1.219 1.865-.714 2.726.589 1.008 1.743 1.162 2.726.715l19.798-8.994c.979-.445 1.218-1.865.714-2.726zM196.423 323.113a2055.008 2055.008 0 0 1-63.287 33.531c-2.288 1.161-.273 4.602 2.012 3.442a2051.818 2051.818 0 0 0 63.287-33.531c2.247-1.241.238-4.685-2.012-3.442zM200.769 338.968a261.262 261.262 0 0 1-18.774 11.057c-2.263 1.209-.252 4.651 2.012 3.441a260.662 260.662 0 0 0 18.774-11.056c2.146-1.387.15-4.84-2.012-3.442zM170.775 243.069h-16.008c-2.564 0-2.569 3.986 0 3.986h16.008c2.565 0 2.569-3.986 0-3.986z" opacity="1" data-original="#ffffff" class=""></path><path fill="#ffffff" d="m341.144 85.181 1.912-6.174c.63-2.032 1.712-4.344.948-6.469-1.005-2.791-4.384-5.291-7.185-7.226a3.97 3.97 0 0 0-.954-1.438L312.77 41.061c-.159-.156-.326-.275-.492-.398-.532-1.208-1.65-2.118-3.4-2.09-4.993.081-10.141 2.374-12.465 7.066-2.86 5.776 2.963 9.404 6.617 13.022l33.65 33.315c.659.652 1.387.998 2.119 1.124a5.87 5.87 0 0 1 .399-.998c1.053-2.022 1.76-4.198 2.521-6.352zM421.226 74.632c.758-.064 2.575-.273 4.413-.327a31.697 31.697 0 0 1 1.163 4.103c-4.351 1.22-10.848 1.762-11.729 1.762-2.451.001-4.906-.102-7.36-.244.307-.842.54-1.702.723-2.576 1.205-.337 2.412-.676 3.602-.989 3.017-.791 6.078-1.459 9.188-1.729zm-30.34-3.813c-1.69-3.794-3.409-8.108-4.548-12.1a3.28 3.28 0 0 0 .483-1.063c.449-1.898.784-3.816 1.072-5.745 2.15-4.219 5.691 3.4 5.728 6.351.054 4.243-.857 8.722-2.735 12.557zm50.977 59.521c-13.216-14.167-26.045-28.954-39.69-42.776 7.306.673 14.757 1.075 21.937-.111 6.509-1.076 18.303-5.422 15.122-14.118-2.899-7.927-14.311-7.253-21.011-6.355-6.251.837-12.884 2.502-19.08 4.813 2.366-5.968 3.493-13.173 1.572-19.169a5.612 5.612 0 0 0-.035-.914c-.72-5.795-4.658-14.642-11.649-14.523a4.043 4.043 0 0 0-1.783.428c-7.395 1.448-11.046 9.274-10.132 16.701 1.018 8.28 4.622 16.747 8.558 24.448a134.588 134.588 0 0 1-22.834-3.496c-3.969-.993-7.933-1.905-11.892-2.368-1.592-.187-2.71.531-3.329 1.605 3.153 4.062 7.328 7.149 10.631 11.072 10.437-.324 20.807 1.559 31.258 1.286.238-.005.462.007.68.029 13.662 13.253 26.363 27.662 39.243 41.731-.009.347.017.7.123 1.056.139.474.318.939.491 1.405a3.73 3.73 0 0 1 1.593.237c3.6 1.403 7.376 1.963 11.174 2.517.297-1.127.091-2.385-.947-3.498zM421.646 148.402a4.182 4.182 0 0 0 1.338-1.162 82.34 82.34 0 0 0 6.218-9.439c2.065-3.655-1.448-6.626-4.561-5.718-.628-.199-1.293-.27-1.948-.148-2.86.526-6.423-1.141-9.094-1.963-2.811-.863-5.622-1.741-8.405-2.694-6.487-2.221-10.152-6.116-14.84-10.887-8.769-8.924-17.957-17.418-27.483-25.527-.027-.024-.057-.036-.084-.058-.969-3.269-6.46-4.183-7.657-.068-1.093 3.756-3.936 9.123-3.274 13.075.624 3.726 5.875 6.229 8.437 8.55 7.786 7.052 14.486 15.342 21.976 22.72 2.857 2.812 5.729 6.339 9.567 7.817 10.041.789 19.739 4.443 29.81 5.502zM450.227 153.648c4.436 1.085 8.988 1.541 13.52 2.116 2.885-5.661 5.881-11.188 7.448-17.337-1.015-1.04-2.516-1.791-4.642-2.092-5.258-.743-10.887-.845-16.197-.977a12.477 12.477 0 0 0-1.962.103c-1.71-1.233-4.118-1.267-5.287 1.156-1.618 3.355-3.511 6.448-5.95 9.281-1.112 1.29-1.376 2.868-.945 4.192 4.727.911 9.282 2.4 14.015 3.558zM403.842 182.563c.247.007.492.024.738.032.78-.839 1.559-1.679 2.351-2.511 2.782-3.357 5.723-6.577 8.712-9.85 4.949-5.421 9.148-11.86 14.755-16.629-.022-1.499-.842-2.925-2.759-3.411-5.793-1.471-9.912 1.788-13.697 5.556-.182.864-.701 1.71-1.661 2.429a50.24 50.24 0 0 0-3.907 3.268 500.8 500.8 0 0 0-5.962 6.229 203.94 203.94 0 0 0-4.009 4.783c-3.09 3.782-6.296 7.465-9.407 11.226 4.855-.789 9.769-1.262 14.846-1.122zM340.444 95.95a5.225 5.225 0 0 1-.655-.719c-1.191-.025-2.386.498-3.208 1.825-7.092 11.452-15.915 21.861-24.136 32.507-8.235 10.666-16.293 21.502-25.664 31.216a4.305 4.305 0 0 0-.99 1.623c.21.263.438.513.652.774a5.013 5.013 0 0 0-.024 1.655c.6 3.932 3.269 7.616 6.827 9.396 1.924.962 4.28.68 5.495-1.269.303-.488.473-1.072.535-1.676 4.043-4.08 8.488-7.755 12.323-12.054 5.085-5.702 10.094-11.486 14.784-17.52 4.073-5.239 7.742-10.757 11.782-16.015 4.223-6.486 8.518-12.926 12.151-19.766-2.999-3.604-6.404-6.822-9.872-9.977z" opacity="1" data-original="#ff9900" class=""></path><path d="m468.333 145.663-.115.269c-.691 1.638-1.283 3.308-1.943 4.96-.441 1.106-.88 2.917-1.975 3.585l-27.596-5.035a40.347 40.347 0 0 0 7.459-12.643c2.513.336 5.028.651 7.547.927 3.526.386 7.282.708 10.904.998 1.382.111 2.686.056 4.061.023 1.197-.03 2.295.886 2.628 2.009.491 1.647-.333 3.422-.97 4.907zm-36.269 2.933-7.004-1.278c1.445-1.678 2.891-3.361 4.228-5.119 1.593-2.093 2.937-4.535 3.143-7.183.413.071.825.149 1.238.217 2.152.357 4.31.686 6.468 1.002a35.982 35.982 0 0 1-8.073 12.361zm-11.516-2.101-14.375-2.622c-2.596-.478-5.193-.948-7.79-1.422-1.838-.335-3.904-.344-5.757-.891-2.178-.645-3.249-2.085-4.712-3.683-1.679-1.83-3.603-3.414-5.389-5.137l-7.485-7.217-20.587-19.851-34.174-32.949c-3.235-3.118-6.468-6.237-9.702-9.356-2.264-2.183-4.739-4.144-6.895-6.441-1.115-1.186-2.188-2.414-3.323-3.582-.941-.969-3.206-2.619-2.975-3.915.311-1.742 2.237-3.653 3.413-4.871 1.285-1.33 3.645-3.782 5.615-3.779 3.841.008 6.578 3.032 8.83 5.775 2.551 3.109 5.409 5.842 8.233 8.701a1145.924 1145.924 0 0 0 17.565 17.366c11.829 11.466 23.834 22.746 35.744 34.127 3.712 3.548 7.415 7.106 11.099 10.683 1.883 1.828 3.762 3.661 5.636 5.499 1.98 1.943 2.933 3.856 5.737 4.639a341.075 341.075 0 0 0 11.599 3.024 321.585 321.585 0 0 0 17.596 3.726c-.078 2.281-1.34 4.217-2.723 6-1.644 2.12-3.446 4.129-5.18 6.176zm-68.137-91.06a749.59 749.59 0 0 0 32.645 25.755c1.485 1.105 2.978-.345 2.939-1.813a1.47 1.47 0 0 0-.045-.837c-2.048-5.501-5.248-10.427-7.582-15.795-2.466-5.673-3.141-11.89-.618-17.687 1.025-2.357 2.67-5.009 5.203-5.948 2.665-.988 5.625.168 7.702 1.89 4.154 3.445 6.473 9.011 7.246 14.236.861 5.816-.332 11.916-3.392 16.933-1.052 1.725.874 3.703 2.639 2.81a66.271 66.271 0 0 1 17.674-5.991c5.72-1.072 12.724-2.116 17.863 1.312 2.055 1.37 4.05 3.823 3.792 6.453-.275 2.796-3.301 4.447-5.507 5.632a40.352 40.352 0 0 1-16.728 4.714 41.539 41.539 0 0 1-7.578-.239c-2.223-.282-4.774-1.003-7.012-.493-1.447.328-3.157 1.975-1.622 3.339 6.051 5.37 11.366 11.336 16.53 17.544a271.508 271.508 0 0 0 16.581 18.218c2.3 2.304 4.656 4.549 7.038 6.768a325.577 325.577 0 0 1-6.787-1.076 2.667 2.667 0 0 0-.262-.436c-9.343-12.533-20.082-23.94-31.381-34.719a539.763 539.763 0 0 0-9.888-9.185c-1.89-1.716-4.811 1-2.911 2.725 11.565 10.499 22.799 21.41 32.888 33.352 2 2.368 3.932 4.79 5.832 7.239-2.227-.42-4.451-.854-6.668-1.323a322.891 322.891 0 0 1-21.177-5.233c-.05-.062-.093-.125-.154-.185-12.057-11.919-24.376-23.567-36.663-35.248-12.284-11.677-24.538-23.391-36.453-35.446a800.148 800.148 0 0 1-5.543-5.665 594.585 594.585 0 0 1 31.399 8.399zm18.746 5.22c2.384.387 4.482 1.111 5.412 3.241 1.418 3.246 3.108 6.346 4.728 9.494a734.691 734.691 0 0 1-18.963-14.902c2.125 1.728 5.717 1.661 8.823 2.167zm50.895 39.985a479.175 479.175 0 0 1 20.496 16.606 495.785 495.785 0 0 1 12.585 11.178c2.01 1.848 4.772 3.911 7.007 6.243a55.535 55.535 0 0 1-1.91-.114c-4.545-.378-9.08-.857-13.604-1.431a1.81 1.81 0 0 0-.542-.833 270.101 270.101 0 0 1-17.345-17.168c-5.558-6.025-10.564-12.522-16.085-18.574a127.15 127.15 0 0 0-6.377-6.489c2.596.019 4.677 1.492 6.719 3.348 2.877 2.614 5.966 4.865 9.056 7.234zm51.137 36.898c-1.551-4.707-5.296-8.093-8.807-11.383a493.477 493.477 0 0 0-14.596-13.138c-9.088-7.86-18.469-15.372-28.08-22.581.189-.033.379-.057.567-.093 3.075-.583 6.068-1.515 8.955-2.721 2.77-1.157 5.611-2.565 7.892-4.544 2.489-2.157 3.801-5.165 3.175-8.457-.578-3.035-2.588-5.592-5.033-7.381-5.465-3.997-12.739-3.476-19.069-2.517-5.451.826-10.788 2.337-15.884 4.435 3.577-9.936 1.848-21.942-5.525-29.718-2.442-2.575-5.656-4.469-9.263-4.652-3.586-.18-6.661 1.626-8.855 4.35-3.318 4.125-4.733 9.601-4.499 14.911a4.556 4.556 0 0 0-.84-.378 590.6 590.6 0 0 0-46.152-13.349c-4.3-1.056-8.623-2.009-12.942-2.98-2.043-.459-4.26-1.283-6.343-1.455-1.672-.138-3.065.878-4.467 1.637a23.592 23.592 0 0 0-5.719 4.516c-.231.25-.456.505-.676.767-1.241 1.472-2.372 3.054-3.177 4.811-1.906 4.158 2.322 7.311 4.958 9.924 1.082 1.073 2.318 1.943 3.235 3.187.007.01-.721.739-.787.825-15.657 20.518-32.235 40.611-47.092 61.713-6.547 9.299-.145 15.607 6.444 22.49 8.602 8.983 17.208 17.961 25.861 26.895a2737.543 2737.543 0 0 0 19.514 19.936 22.087 22.087 0 0 1 4.13-.424c2.161-.012 4.315-.092 6.465-.199a2389.413 2389.413 0 0 1-17.448-17.718 4415.248 4415.248 0 0 1-22.509-23.306c-3.853-4.014-7.701-8.033-11.549-12.052-1.491-1.557-3.204-3.054-4.48-4.802-2.124-2.909-1.106-4.671.939-7.385 15.269-20.28 30.799-40.367 46.2-60.546l59.49 57.361 17.022 16.412a4.234 4.234 0 0 0-.838.897c-11.022 16.215-22 32.46-32.955 48.719 2.832-.119 5.664-.235 8.495-.408a21.17 21.17 0 0 1 1.398-.012 14121.076 14121.076 0 0 1 29.825-44.072c.015-.022.022-.043.036-.066l27.294 4.979c-10.838 10.768-20.909 22.259-30.586 34.077 1.947-.353 3.9-.659 5.867-.903 5.083-6.131 10.284-12.165 15.67-18.038a359.554 359.554 0 0 1 13.811-14.267c1.987.364 3.973.726 5.959 1.087-8.131 10.558-16.893 20.594-25.659 30.628.426.003.852.001 1.281.013 1.274.035 2.546.094 3.816.171 4.232-4.846 8.451-9.701 12.587-14.625 4.233-5.038 8.38-10.15 12.368-15.385l10.803 1.971-21.233 29.337c3.11.294 6.224.536 9.348.656l6.067-8.384 8.323-11.5 3.105-4.29c.927-1.283 2.317-2.732 2.602-4.294.01-.05 11.458 2.063 12.649 2.28.809.147 1.632-.067 2.125-.67 2.493-1.666 3.39-4.93 4.394-7.609 1.092-2.912 2.638-6.009 2.825-9.174.068-1.163-.045-2.334-.432-3.509z" fill="#ffffff" opacity="1" data-original="#000000" class=""></path><path d="M424.23 78.286c-.482.47-1.165.658-1.801.804-1.758.406-3.602.369-5.395.397-1.852.03-3.703.019-5.553-.024 1.582-.735 3.204-1.374 4.897-1.818 1.648-.43 3.317-.674 5.024-.615.735.026 2.935.121 3.126.857-.028-.107-.126.232-.298.399zm4.173-1.275c-.371-1.617-1.664-2.695-3.143-3.294-2.9-1.178-6.551-.756-9.508-.026-3.909.965-7.505 2.868-11.03 4.756-.503.269-.79.652-.925 1.07-1.239.944-.884 3.506 1.159 3.643 3.803.255 7.614.368 11.425.322 3.399-.041 7.402.172 10.241-2.014 1.346-1.036 2.172-2.752 1.781-4.457zM387.974 59.985c-.224-1.373-.228-2.847.105-4.205.189-.767.57-2.41 1.588-2.351 1.015.059 1.505 1.471 1.674 2.357.275 1.444.172 3.005.09 4.464-.124 2.189-.494 4.339-1.035 6.45-1.093-2.128-2.032-4.329-2.422-6.715zm7.356 1.534c.27-3.012.562-6.826-1.215-9.462-1.985-2.944-6.056-3.562-8.366-.652-2.02 2.541-2.143 6.304-1.672 9.372.572 3.721 2.388 7.131 4.192 10.383.254.457.603.735.986.882l.067.137c.807 1.664 3.088 1.135 3.662-.38a38.692 38.692 0 0 0 2.346-10.28zM387.002 78.131a562.992 562.992 0 0 0-22.223-4.529 583.026 583.026 0 0 0-16.976-2.844c-.995-.152-2.449-.532-3.368.065-1.268.823-1.61 3.096-2.072 4.429-.882 2.542-1.455 5.149-2.089 7.761a47.165 47.165 0 0 1-3.436 9.547c-3.045 6.252-7.14 11.917-11.309 17.455-8.62 11.454-17.294 22.88-26.308 34.028-5.036 6.227-10.2 12.35-15.537 18.321-1.7 1.903 1.013 4.823 2.725 2.91 9.632-10.774 18.687-22.048 27.52-33.481 4.416-5.716 8.778-11.471 13.139-17.227 4.242-5.601 8.516-11.227 11.875-17.417 1.851-3.413 3.443-6.997 4.547-10.725 1.154-3.901 1.51-8.133 3.468-11.757.005-.008.006-.017.011-.026a556.86 556.86 0 0 1 38.896 7.311c2.489.56 3.646-3.257 1.137-3.821z" fill="#ffffff" opacity="1" data-original="#000000" class=""></path><path d="M392.352 88.101c.024-1.159-.879-1.913-1.952-2.034a270.476 270.476 0 0 0-33.498-1.707c-2.487.032-2.796 3.53-3.34 5.336-1.535 5.094-2.465 10.926-4.614 15.863-2.816 6.469-7.375 12.136-11.496 17.805-8.323 11.452-16.809 22.806-25.915 33.652-5.16 6.147-10.516 12.129-16.117 17.878-1.788 1.836.932 4.75 2.726 2.91 10.062-10.329 19.315-21.415 28.129-32.819 4.385-5.671 8.663-11.427 12.89-17.216 4.172-5.716 8.677-11.372 11.978-17.654 1.822-3.467 2.991-7.216 3.904-11.012.469-1.951.869-3.918 1.279-5.883.289-1.385.401-3.383 1.496-4.407 1.365-1.276 5.463-.459 7.151-.427 2.886.055 5.772.153 8.655.301 5.576.282 11.143.737 16.69 1.366 1.071.122 2.013-.948 2.034-1.952z" fill="#ffffff" opacity="1" data-original="#000000" class=""></path><path fill="#1640d6" d="M386.565 44.906c-.014.017.031-.016.189-.146-.004 0-.008.003-.012.005-.058.049-.118.095-.177.141z" opacity="1" data-original="#ffffff" class=""></path><path fill="#1640d6" d="M383.334 50.542c.019-.208.042-.417.073-.624l.006-.036c-.002.006-.001-.001.003-.026.012-.061.025-.123.031-.185-.004.044-.01.086-.017.123l.011-.052a9.6 9.6 0 0 1 .543-1.668c.012-.03.052-.113.069-.152a10.044 10.044 0 0 1 1.075-1.677c.257-.283.514-.562.798-.819.204-.185.423-.35.64-.52.016-.019.1-.091.161-.13l.014-.01a2.69 2.69 0 0 0 .013-.007c.079-.051.159-.101.239-.15.181-.108.364-.208.55-.305.925-.48 1.401-1.743.866-2.683-.534-.934-1.692-1.38-2.683-.864-3.592 1.865-6.017 5.54-6.372 9.563-.093 1.04.827 2.089 1.879 2.101 1.109.015 2.002-.769 2.101-1.879z" opacity="1" data-original="#ffffff" class=""></path><path fill="#1640d6" d="M383.413 49.882c.002-.009.009-.037.018-.089a1.027 1.027 0 0 1-.015.063l-.003.026zM435.823 77.382c.448-.255.847-.649.988-1.162.131-.474.167-1.095-.122-1.52-.409-.603-.822-1.156-1.374-1.631-.555-.479-1.123-.91-1.765-1.265-1.155-.637-2.39-1.108-3.632-1.542-.987-.344-2.227.264-2.51 1.286-.292 1.061.234 2.14 1.285 2.508.75.263 1.494.54 2.219.863a9.55 9.55 0 0 1 1.615.995c.32.294.617.61.867.966l-.228-.327c.301.437.605.78 1.137.952.465.15 1.088.123 1.52-.123zM331.57 66.85l-15.199-15.678-3.757-3.877c-1.092-1.126-2.209-2.671-3.687-3.297-3.154-1.337-6.221 2.339-8.136 4.379-1.745 1.856.932 4.815 2.694 2.937a35.785 35.785 0 0 1 3.033-2.886c.227-.192.493-.359.698-.575l.234-.129c.509.381.928.929 1.372 1.386l6.66 6.871 13.149 13.564c1.781 1.837 4.732-.846 2.939-2.695zM337.392 75.474a1.49 1.49 0 0 0 .553-.548c.253-.437.4-.973.272-1.478l-.179-.503a1.972 1.972 0 0 0-.7-.772l-1.932-1.492a1.485 1.485 0 0 0-.712-.263 1.495 1.495 0 0 0-.766-.009 1.499 1.499 0 0 0-.723.33 1.464 1.464 0 0 0-.551.548c-.255.438-.402.972-.273 1.478l.178.504c.164.32.399.577.701.772l1.931 1.492c.217.149.454.237.711.263.253.07.508.073.767.009.273-.047.515-.156.723-.331zM417.891 135.881l-13.296-3.784c-1.918-.545-3.984-.978-5.736-1.959-1.724-.962-3.087-2.447-4.5-3.798l-19.945-19.085-11.218-10.736c-1.843-1.762-4.8.916-2.939 2.696l20.301 19.426 10.329 9.882c1.533 1.467 3.024 3.04 4.75 4.285 1.698 1.226 3.702 1.924 5.695 2.502 5.104 1.48 10.224 2.911 15.335 4.365 2.466.701 3.698-3.091 1.224-3.794zM466.359 143.401c.064-1.155-.812-1.946-1.88-2.101-5.254-.76-10.866.158-15.937-.999-1.049-.242-2.158.196-2.509 1.284-.309.956.23 2.267 1.285 2.509 5.588 1.276 11.308.371 16.939 1.186 1.066.155 2.045-.871 2.102-1.879zM316.049 137.87a1532.28 1532.28 0 0 1 26.21-33.164c.678-.835.226-2.221-.607-2.753-.992-.634-2.072-.232-2.754.606a1543.4 1543.4 0 0 0-26.208 33.165c-1.562 2.034 1.804 4.172 3.359 2.146z" opacity="1" data-original="#ffffff" class=""></path></g></g></svg>