<svg xmlns="http://www.w3.org/2000/svg" version="1.1" xmlns:xlink="http://www.w3.org/1999/xlink" width="512" height="512" x="0" y="0" viewBox="0 0 56.693 56.693" style="enable-background:new 0 0 512 512" xml:space="preserve" class=""><g transform="matrix(1.04,0,0,1.04,-1.1338400650024383,-1.1960399627685483)"><path d="m26.371 40.813-.022-.103a16.601 16.601 0 0 1-.25-1.483 4.993 4.993 0 0 1-.041-.299 17.225 17.225 0 0 1-.098-1.793c0-9.241 7.516-16.76 16.756-16.76.428 0 .871.021 1.326.062-.584-5.899-5.576-10.527-11.631-10.527-3.882 0-7.523 1.896-9.754 4.828-2.231-2.933-5.867-4.828-9.753-4.828-6.442 0-11.686 5.245-11.686 11.687 0 2.535.798 4.949 2.307 6.975l.074.096L20.97 49.203c.366.432.899.683 1.467.686h.01c.561 0 1.094-.241 1.461-.666l3.881-4.472a16.921 16.921 0 0 1-1.406-3.894z" fill="#1640d6" opacity="1" data-original="#000000" class=""></path><path d="M44.558 24.521h-.008a16.092 16.092 0 0 0-.805-.094l-.012-.001c-.338-.03-.676-.05-1.018-.05-7.047 0-12.756 5.713-12.756 12.76 0 .463.027.92.074 1.369.008.068.023.135.029.203.049.391.111.776.193 1.154.008.031.018.061.023.095.111.49.26.966.426 1.433 1.752 4.95 6.457 8.502 12.01 8.502 7.047 0 12.76-5.707 12.76-12.756.002-6.42-4.745-11.717-10.916-12.615zm3.88 14.107H37.001a1.49 1.49 0 0 1-1.492-1.494c0-.822.664-1.488 1.492-1.488h11.438a1.492 1.492 0 0 1-.001 2.982z" fill="#1640d6" opacity="1" data-original="#000000" class=""></path></g></svg>