<svg xmlns="http://www.w3.org/2000/svg" version="1.1" xmlns:xlink="http://www.w3.org/1999/xlink" width="512" height="512" x="0" y="0" viewBox="0 0 24 24" style="enable-background:new 0 0 512 512" xml:space="preserve" class=""><g><path d="M19.9 12.75H4.1c-1.918 0-2.85.976-2.85 2.981v4.038c0 2.005.932 2.981 2.85 2.981h15.8c1.918 0 2.85-.976 2.85-2.981V15.73c0-2.005-.932-2.981-2.85-2.981zm1.35 7.019c0 1.267-.337 1.481-1.35 1.481H4.1c-1.013 0-1.35-.214-1.35-1.481V15.73c0-1.267.337-1.481 1.35-1.481h15.8c1.013 0 1.35.214 1.35 1.481zM19.9 1.25H4.1c-1.918 0-2.85.976-2.85 2.981V8.27c0 2.005.932 2.981 2.85 2.981h15.8c1.918 0 2.85-.976 2.85-2.981V4.23c0-2.005-.932-2.981-2.85-2.981zm1.35 7.019c0 1.267-.337 1.481-1.35 1.481H4.1c-1.013 0-1.35-.214-1.35-1.481V4.23c0-1.267.337-1.481 1.35-1.481h15.8c1.013 0 1.35.214 1.35 1.481z" data-name="1" fill="#000000" opacity="1" data-original="#000000" class=""></path></g></svg>